<svg width="19" height="19" viewBox="0 0 19 19" fill="none" xmlns="http://www.w3.org/2000/svg">
<path d="M15.6022 1.58331H3.39787C2.39721 1.58331 1.58337 2.39715 1.58337 3.39781V15.6021C1.58337 16.6028 2.39721 17.4166 3.39787 17.4166H15.6022C16.6029 17.4166 17.4167 16.6028 17.4167 15.6021V3.39781C17.4167 2.39715 16.6029 1.58331 15.6022 1.58331ZM16.2292 15.6021C16.2292 15.9481 15.9482 16.2291 15.6022 16.2291H3.39787C3.05192 16.2291 2.77087 15.9481 2.77087 15.6021V5.0809C2.77087 4.73494 3.05112 4.45548 3.39629 4.4539H15.6038C15.949 4.4539 16.2292 4.73494 16.2292 5.07931V15.6037V15.6021Z" fill="#5B7083"/>
<path d="M5.5671 7.94431C6.12893 7.94431 6.58439 7.48886 6.58439 6.92702C6.58439 6.36519 6.12893 5.90973 5.5671 5.90973C5.00526 5.90973 4.5498 6.36519 4.5498 6.92702C4.5498 7.48886 5.00526 7.94431 5.5671 7.94431Z" fill="#5B7083"/>
<path d="M5.5671 11.4323C6.12893 11.4323 6.58439 10.9769 6.58439 10.4151C6.58439 9.85322 6.12893 9.39777 5.5671 9.39777C5.00526 9.39777 4.5498 9.85322 4.5498 10.4151C4.5498 10.9769 5.00526 11.4323 5.5671 11.4323Z" fill="#5B7083"/>
<path d="M13.4331 7.94431C13.9949 7.94431 14.4504 7.48886 14.4504 6.92702C14.4504 6.36519 13.9949 5.90973 13.4331 5.90973C12.8712 5.90973 12.4158 6.36519 12.4158 6.92702C12.4158 7.48886 12.8712 7.94431 13.4331 7.94431Z" fill="#5B7083"/>
<path d="M13.4331 11.4323C13.9949 11.4323 14.4504 10.9769 14.4504 10.4151C14.4504 9.85322 13.9949 9.39777 13.4331 9.39777C12.8712 9.39777 12.4158 9.85322 12.4158 10.4151C12.4158 10.9769 12.8712 11.4323 13.4331 11.4323Z" fill="#5B7083"/>
<path d="M9.50008 7.94431C10.0619 7.94431 10.5174 7.48886 10.5174 6.92702C10.5174 6.36519 10.0619 5.90973 9.50008 5.90973C8.93824 5.90973 8.48279 6.36519 8.48279 6.92702C8.48279 7.48886 8.93824 7.94431 9.50008 7.94431Z" fill="#5B7083"/>
<path d="M9.50008 11.4323C10.0619 11.4323 10.5174 10.9769 10.5174 10.4151C10.5174 9.85322 10.0619 9.39777 9.50008 9.39777C8.93824 9.39777 8.48279 9.85322 8.48279 10.4151C8.48279 10.9769 8.93824 11.4323 9.50008 11.4323Z" fill="#5B7083"/>
<path d="M5.5671 14.8603C6.12893 14.8603 6.58439 14.4049 6.58439 13.843C6.58439 13.2812 6.12893 12.8257 5.5671 12.8257C5.00526 12.8257 4.5498 13.2812 4.5498 13.843C4.5498 14.4049 5.00526 14.8603 5.5671 14.8603Z" fill="#5B7083"/>
<path d="M9.50008 14.8603C10.0619 14.8603 10.5174 14.4049 10.5174 13.843C10.5174 13.2812 10.0619 12.8257 9.50008 12.8257C8.93824 12.8257 8.48279 13.2812 8.48279 13.843C8.48279 14.4049 8.93824 14.8603 9.50008 14.8603Z" fill="#5B7083"/>
</svg>
