<svg width="19" height="20" viewBox="0 0 19 20" fill="none" xmlns="http://www.w3.org/2000/svg">
<path id="Vector" d="M2.83292 0.490874L9.5 7.50855L16.1325 0.527235C16.279 0.363096 16.4555 0.231792 16.6514 0.141194C16.8473 0.050596 17.0585 0.00257135 17.2725 0C17.7306 0 18.1699 0.191544 18.4938 0.532495C18.8177 0.873445 18.9997 1.33587 18.9997 1.81805C19.0037 2.04095 18.9645 2.26236 18.8843 2.4687C18.8041 2.67504 18.6847 2.86195 18.5334 3.01796L11.8145 9.99928L18.5334 17.0715C18.818 17.3646 18.985 17.7616 18.9997 18.1805C18.9997 18.6627 18.8177 19.1251 18.4938 19.4661C18.1699 19.807 17.7306 19.9986 17.2725 19.9986C17.0524 20.0082 16.8328 19.9695 16.6276 19.885C16.4224 19.8005 16.2362 19.672 16.0807 19.5077L9.5 12.49L2.8502 19.4895C2.70426 19.6482 2.52991 19.7748 2.33722 19.8622C2.14452 19.9496 1.9373 19.9959 1.7275 19.9986C1.26941 19.9986 0.830089 19.807 0.506172 19.4661C0.182256 19.1251 0.00028103 18.6627 0.00028103 18.1805C-0.00374598 17.9576 0.035543 17.7362 0.115737 17.5299C0.195931 17.3235 0.315339 17.1366 0.466631 16.9806L7.18552 9.99928L0.466631 2.92706C0.181959 2.63392 0.0150308 2.23695 0.00028103 1.81805C0.00028103 1.33587 0.182256 0.873445 0.506172 0.532495C0.830089 0.191544 1.26941 0 1.7275 0C2.14204 0.00545415 2.5393 0.181805 2.83292 0.490874Z" fill="black"/>
</svg>
