<svg width="22" height="21" viewBox="0 0 22 21" fill="none" xmlns="http://www.w3.org/2000/svg">
<g id="Group">
<path id="Vector" d="M21.46 5.57002L11.357 0.115024C11.134 -0.00497559 10.867 -0.00497559 10.644 0.115024L0.542993 5.57002C0.178993 5.76702 0.0429934 6.22202 0.239993 6.58702C0.374993 6.83702 0.633993 6.98002 0.899993 6.98002C1.01999 6.98002 1.14299 6.95002 1.25599 6.89002L2.07099 6.45002L3.69999 17.963C3.91399 19.178 5.00799 20.025 6.35799 20.025H15.64C16.992 20.025 18.085 19.177 18.303 17.938L19.929 6.44802L20.747 6.89002C21.111 7.08302 21.567 6.95002 21.764 6.58602C21.96 6.22302 21.824 5.76802 21.46 5.57002ZM16.822 17.703C16.715 18.309 16.119 18.525 15.642 18.525H6.35999C5.87999 18.525 5.28499 18.309 5.18199 17.727L3.47999 5.69002L11 1.62802L18.522 5.68802L16.822 17.703Z" fill="#0F1419"/>
<path id="Vector_2" d="M7.21997 10.1841C7.21997 12.2681 8.91497 13.9641 11 13.9641C13.085 13.9641 14.78 12.2681 14.78 10.1841C14.78 8.10005 13.085 6.40405 11 6.40405C8.91497 6.40405 7.21997 8.10005 7.21997 10.1841ZM13.28 10.1841C13.28 11.4421 12.258 12.4641 11 12.4641C9.74197 12.4641 8.71997 11.4421 8.71997 10.1841C8.71997 8.92605 9.74197 7.90405 11 7.90405C12.258 7.90405 13.28 8.92605 13.28 10.1841Z" fill="#0F1419"/>
</g>
</svg>
