<svg width="255" height="60" viewBox="0 0 255 60" fill="none" xmlns="http://www.w3.org/2000/svg">
<path d="M38.225 24.1875L25.5938 17.3713C25.2225 17.1713 24.7763 17.1713 24.4063 17.3713L11.7813 24.1875C11.1738 24.5175 10.9475 25.275 11.275 25.8825C11.5 26.3013 11.9313 26.5388 12.375 26.5388C12.575 26.5388 12.78 26.4913 12.9688 26.3888L13.8863 25.8938L15.8738 39.9563C16.1438 41.4738 17.5113 42.5338 19.1988 42.5338H30.8013C32.4888 42.5338 33.8563 41.4738 34.1288 39.9238L36.1138 25.8925L37.035 26.39C37.6413 26.7188 38.4 26.4925 38.7275 25.885C39.0563 25.2775 38.8275 24.5188 38.2225 24.1913L38.225 24.1875ZM25 34.2938C22.7563 34.2938 20.9375 32.475 20.9375 30.2313C20.9375 27.9875 22.7563 26.1688 25 26.1688C27.2438 26.1688 29.0625 27.9875 29.0625 30.2313C29.0625 32.475 27.2438 34.2938 25 34.2938Z" fill="#1DA1F2"/>
<path d="M72.0234 37V24.3364H68.9526V29.3369H64.3047V24.3364H61.2339V37H64.3047V31.8232H68.9526V37H72.0234ZM78.6382 26.9062C75.6323 26.9062 73.9253 28.9194 73.9253 31.7026V32.3335C73.9253 35.3301 75.623 37.1855 78.6382 37.1855C81.644 37.1855 83.3418 35.3301 83.3418 32.3242V31.6841C83.3418 28.9009 81.644 26.9062 78.6382 26.9062ZM78.6382 29.1328C79.8721 29.1328 80.3267 30.2925 80.3267 31.6562V32.417C80.3267 33.7065 79.8999 34.959 78.6382 34.959C77.3672 34.959 76.9404 33.6973 76.9404 32.417V31.6562C76.9404 30.311 77.3857 29.1328 78.6382 29.1328ZM85.0859 37H88.0547V31.1553C88.0547 29.8657 88.7319 29.3647 89.5391 29.3647C90.3184 29.3647 91.0142 29.8008 91.0142 31.1646V37H93.853V31.1738C93.853 29.9678 94.4375 29.3647 95.3467 29.3647C96.1631 29.3647 96.8032 29.8564 96.8032 31.1089V37H99.7812V30.209C99.7812 28.27 98.6309 26.9434 96.6177 26.9434C94.9292 26.9434 93.9087 27.8804 93.6211 28.7061H93.5005C93.1851 27.667 92.2852 26.9434 90.7729 26.9434C89.1865 26.9434 88.3608 27.8896 88.1196 28.6411H87.9712V27.0918H85.0859V37ZM106.192 37.1855C109.133 37.1855 110.413 35.3857 110.562 33.8271H107.862C107.741 34.5601 107.083 34.9961 106.201 34.9961C105.181 34.9961 104.401 34.2446 104.401 32.9829V32.6489H110.626V31.6562C110.626 28.7339 108.845 26.9062 106.081 26.9062C103.474 26.9062 101.498 28.5298 101.498 31.6099V32.3984C101.498 35.5527 103.409 37.1855 106.192 37.1855ZM104.401 30.9419V30.9326C104.401 29.8379 105.088 29.0308 106.108 29.0308C107.12 29.0308 107.778 29.8379 107.778 30.9326V30.9419H104.401Z" fill="#1DA1F2"/>
</svg>
