<svg width="26" height="24" viewBox="0 0 26 24" fill="none" xmlns="http://www.w3.org/2000/svg">
<g id="Group">
<path id="Vector" d="M22.0625 0.772522H3.9375C2.04125 0.772522 0.5 2.31502 0.5 4.21252V19.8313C0.5 21.7288 2.04125 23.2725 3.9375 23.2725H22.0625C23.9587 23.2725 25.5 21.7288 25.5 19.8313V4.21252C25.5 2.31502 23.9587 0.772522 22.0625 0.772522ZM3.9375 2.64752H22.0625C22.925 2.64752 23.625 3.34752 23.625 4.21002V5.10252L13.5625 11.8113C13.2212 12.0363 12.78 12.0388 12.4375 11.8088L2.375 5.10252V4.21002C2.375 3.34752 3.075 2.64752 3.9375 2.64752ZM22.0625 21.395H3.9375C3.075 21.395 2.375 20.695 2.375 19.8325V7.30002L11.425 13.3375C11.9037 13.6575 12.4525 13.8175 13 13.8175C13.55 13.8175 14.0963 13.6575 14.575 13.3388L23.625 7.30127V19.8288C23.625 20.6913 22.925 21.3913 22.0625 21.3913V21.395Z" fill="#0F1419"/>
</g>
</svg>
