<svg width="255" height="60" viewBox="0 0 255 60" fill="none" xmlns="http://www.w3.org/2000/svg">
<path d="M34.0625 18.7725H15.9375C14.0412 18.7725 12.5 20.315 12.5 22.2125V37.8313C12.5 39.7288 14.0412 41.2725 15.9375 41.2725H34.0625C35.9587 41.2725 37.5 39.7288 37.5 37.8313V22.2125C37.5 20.315 35.9587 18.7725 34.0625 18.7725ZM15.9375 20.6475H34.0625C34.925 20.6475 35.625 21.3475 35.625 22.21V23.1025L25.5625 29.8113C25.2212 30.0363 24.78 30.0388 24.4375 29.8088L14.375 23.1025V22.21C14.375 21.3475 15.075 20.6475 15.9375 20.6475ZM34.0625 39.395H15.9375C15.075 39.395 14.375 38.695 14.375 37.8325V25.3L23.425 31.3375C23.9037 31.6575 24.4525 31.8175 25 31.8175C25.55 31.8175 26.0963 31.6575 26.575 31.3388L35.625 25.3013V37.8288C35.625 38.6913 34.925 39.3913 34.0625 39.3913V39.395Z" fill="#0F1419"/>
<path d="M63.9707 37V29.1606H64.1099L66.791 35.0889H68.5908L71.2627 29.1606H71.3926V37H74.1479V24.3364H71.0122L67.7559 31.4893H67.6631L64.416 24.3364H61.2432V37H63.9707ZM80.772 37.1855C83.7129 37.1855 84.9932 35.3857 85.1416 33.8271H82.4419C82.3213 34.5601 81.6626 34.9961 80.7812 34.9961C79.7607 34.9961 78.9814 34.2446 78.9814 32.9829V32.6489H85.2065V31.6562C85.2065 28.7339 83.4253 26.9062 80.6606 26.9062C78.0537 26.9062 76.0776 28.5298 76.0776 31.6099V32.3984C76.0776 35.5527 77.9888 37.1855 80.772 37.1855ZM78.9814 30.9419V30.9326C78.9814 29.8379 79.668 29.0308 80.6885 29.0308C81.6997 29.0308 82.3584 29.8379 82.3584 30.9326V30.9419H78.9814ZM86.6538 30.0977C86.6538 31.9531 88.0547 32.686 89.7896 33.0479C90.9863 33.2891 92.2295 33.3818 92.2295 34.2354C92.2295 34.7642 91.7749 35.2188 90.8379 35.2188C89.9473 35.2188 89.3906 34.7734 89.3257 34.1426H86.4404C86.4404 35.9053 87.9155 37.1855 90.6987 37.1855C93.5005 37.1855 95.0962 35.9238 95.0962 33.855C95.0962 32.083 93.8994 31.3779 92.0903 31.0532C90.9678 30.8491 89.4648 30.7378 89.4648 29.8286C89.4648 29.2627 89.9473 28.8638 90.7637 28.8638C91.7471 28.8638 92.1089 29.4204 92.1738 29.9678H94.7715C94.7715 28.001 93.1851 26.9062 90.8193 26.9062C88.6113 26.9062 86.6538 27.834 86.6538 30.0977ZM96.4878 30.0977C96.4878 31.9531 97.8887 32.686 99.6235 33.0479C100.82 33.2891 102.063 33.3818 102.063 34.2354C102.063 34.7642 101.609 35.2188 100.672 35.2188C99.7812 35.2188 99.2246 34.7734 99.1597 34.1426H96.2744C96.2744 35.9053 97.7495 37.1855 100.533 37.1855C103.334 37.1855 104.93 35.9238 104.93 33.855C104.93 32.083 103.733 31.3779 101.924 31.0532C100.802 30.8491 99.2988 30.7378 99.2988 29.8286C99.2988 29.2627 99.7812 28.8638 100.598 28.8638C101.581 28.8638 101.943 29.4204 102.008 29.9678H104.605C104.605 28.001 103.019 26.9062 100.653 26.9062C98.4453 26.9062 96.4878 27.834 96.4878 30.0977ZM109.411 37.1484C110.868 37.1484 111.666 36.499 112 35.8125H112.129V37H114.922V30.3945C114.922 27.9453 113.066 26.9434 110.691 26.9434C107.546 26.9434 106.554 28.6318 106.498 30.2461H109.272C109.309 29.5688 109.81 29.105 110.654 29.105C111.489 29.105 111.99 29.5503 111.99 30.3574V31.1831H109.699C107.389 31.1831 106.136 32.3335 106.136 34.1426C106.136 36.0259 107.472 37.1484 109.411 37.1484ZM110.432 35.0796C109.736 35.0796 109.068 34.6899 109.068 33.9106C109.068 33.2427 109.569 32.7974 110.487 32.7974H111.99V33.7715C111.99 34.5601 111.276 35.0796 110.432 35.0796ZM121.379 38.54C120.479 38.54 119.82 38.1689 119.663 37.5474H116.833C116.926 39.1987 118.28 40.6274 121.323 40.6274C123.578 40.6274 126.166 39.7275 126.166 36.9165V27.0918H123.216V28.5947H123.086C122.706 27.6484 121.676 26.9805 120.293 26.9805C118.076 26.9805 116.629 28.5947 116.629 31.6655V32.1479C116.629 35.2373 118.085 36.8423 120.293 36.8423C121.704 36.8423 122.706 36.165 123.067 35.2837H123.197V36.666C123.197 37.8628 122.557 38.54 121.379 38.54ZM121.462 29.2905C122.501 29.2905 123.197 30.144 123.197 31.7212V32.2778C123.197 33.8643 122.52 34.7178 121.462 34.7178C120.386 34.7178 119.7 33.8643 119.7 32.2778V31.7212C119.7 30.1255 120.386 29.2905 121.462 29.2905ZM132.632 37.1855C135.573 37.1855 136.854 35.3857 137.002 33.8271H134.302C134.182 34.5601 133.523 34.9961 132.642 34.9961C131.621 34.9961 130.842 34.2446 130.842 32.9829V32.6489H137.067V31.6562C137.067 28.7339 135.286 26.9062 132.521 26.9062C129.914 26.9062 127.938 28.5298 127.938 31.6099V32.3984C127.938 35.5527 129.849 37.1855 132.632 37.1855ZM130.842 30.9419V30.9326C130.842 29.8379 131.528 29.0308 132.549 29.0308C133.56 29.0308 134.219 29.8379 134.219 30.9326V30.9419H130.842ZM138.514 30.0977C138.514 31.9531 139.915 32.686 141.65 33.0479C142.847 33.2891 144.09 33.3818 144.09 34.2354C144.09 34.7642 143.635 35.2188 142.698 35.2188C141.808 35.2188 141.251 34.7734 141.186 34.1426H138.301C138.301 35.9053 139.776 37.1855 142.559 37.1855C145.361 37.1855 146.957 35.9238 146.957 33.855C146.957 32.083 145.76 31.3779 143.951 31.0532C142.828 30.8491 141.325 30.7378 141.325 29.8286C141.325 29.2627 141.808 28.8638 142.624 28.8638C143.607 28.8638 143.969 29.4204 144.034 29.9678H146.632C146.632 28.001 145.045 26.9062 142.68 26.9062C140.472 26.9062 138.514 27.834 138.514 30.0977Z" fill="#0F1419"/>
</svg>
