<svg width="26" height="26" viewBox="0 0 26 26" fill="none" xmlns="http://www.w3.org/2000/svg">
<g id="Group">
<path id="Vector" d="M25.1212 18.585C25.0962 18.565 22.4462 16.535 22.4925 11.0475C22.5175 7.88247 21.4775 5.06998 19.5587 3.12873C17.84 1.38748 15.5125 0.424976 13.0062 0.412476H12.99C10.485 0.424976 8.15748 1.38748 6.43748 3.12998C4.51998 5.07123 3.47748 7.88247 3.50498 11.0475C3.55123 16.46 0.979984 18.5062 0.877484 18.585C0.552484 18.8262 0.419984 19.2475 0.546234 19.6325C0.673734 20.0175 1.03373 20.2762 1.43623 20.2762H7.58623C7.71373 23.1637 10.0825 25.4762 12.9987 25.4762C15.915 25.4762 18.2812 23.1637 18.4075 20.2762H24.56C24.9625 20.2762 25.3225 20.0187 25.4475 19.6337C25.5762 19.25 25.4437 18.8275 25.1187 18.5862L25.1212 18.585ZM13 23.5975C11.1187 23.5975 9.58748 22.1262 9.46498 20.275H16.535C16.41 22.125 14.8812 23.6 13 23.6V23.5975ZM3.47498 18.4C4.39998 16.985 5.40998 14.615 5.37998 11.03C5.35748 8.32997 6.18498 6.05248 7.77123 4.44623C9.13748 3.06248 10.9962 2.29623 13 2.28748C15.0037 2.29748 16.8587 3.06248 18.225 4.44748C19.8125 6.05373 20.6412 8.32998 20.6187 11.0312C20.5887 14.6162 21.6 16.9875 22.525 18.4012H3.47498V18.4Z" fill="#0F1419"/>
</g>
</svg>
