<svg width="255" height="60" viewBox="0 0 255 60" fill="none" xmlns="http://www.w3.org/2000/svg">
<path d="M37.1213 35.585C37.0963 35.565 34.4463 33.535 34.4925 28.0475C34.5175 24.8825 33.4775 22.07 31.5588 20.1288C29.84 18.3875 27.5125 17.425 25.0063 17.4125H24.99C22.485 17.425 20.1575 18.3875 18.4375 20.13C16.52 22.0713 15.4775 24.8825 15.505 28.0475C15.5513 33.46 12.98 35.5063 12.8775 35.585C12.5525 35.8263 12.42 36.2475 12.5463 36.6325C12.6738 37.0175 13.0338 37.2763 13.4363 37.2763H19.5863C19.7138 40.1638 22.0825 42.4763 24.9988 42.4763C27.915 42.4763 30.2813 40.1638 30.4075 37.2763H36.56C36.9625 37.2763 37.3225 37.0188 37.4475 36.6338C37.5763 36.25 37.4438 35.8275 37.1188 35.5863L37.1213 35.585ZM25 40.5975C23.1188 40.5975 21.5875 39.1263 21.465 37.275H28.535C28.41 39.125 26.8813 40.6 25 40.6V40.5975ZM15.475 35.4C16.4 33.985 17.41 31.615 17.38 28.03C17.3575 25.33 18.185 23.0525 19.7713 21.4463C21.1375 20.0625 22.9963 19.2963 25 19.2875C27.0038 19.2975 28.8588 20.0625 30.225 21.4475C31.8125 23.0538 32.6413 25.33 32.6188 28.0313C32.5888 31.6163 33.6 33.9875 34.525 35.4013H15.475V35.4Z" fill="#0F1419"/>
<path d="M64.0635 37V29.4297H64.1748L69.2773 37H71.6895V24.3364H68.8506V31.8325H68.7485L63.6553 24.3364H61.2339V37H64.0635ZM78.3228 26.9062C75.3169 26.9062 73.6099 28.9194 73.6099 31.7026V32.3335C73.6099 35.3301 75.3076 37.1855 78.3228 37.1855C81.3286 37.1855 83.0264 35.3301 83.0264 32.3242V31.6841C83.0264 28.9009 81.3286 26.9062 78.3228 26.9062ZM78.3228 29.1328C79.5566 29.1328 80.0112 30.2925 80.0112 31.6562V32.417C80.0112 33.7065 79.5845 34.959 78.3228 34.959C77.0518 34.959 76.625 33.6973 76.625 32.417V31.6562C76.625 30.311 77.0703 29.1328 78.3228 29.1328ZM85.6519 27.0918H84.1304V29.3462H85.5776V34.1797C85.5776 36.2485 86.5981 37.0278 89.1401 37.0278C89.7339 37.0278 90.2163 36.9814 90.439 36.9443V34.8013C90.3369 34.8105 90.0864 34.8198 89.8545 34.8198C88.9546 34.8198 88.5186 34.5229 88.5186 33.6509V29.3462H90.4111V27.0918H88.5186V24.791H85.6519V27.0918ZM92.3037 24.5962C92.3037 25.4775 93.0273 26.0527 93.9087 26.0527C94.79 26.0527 95.5137 25.4775 95.5137 24.5962C95.5137 23.7148 94.79 23.1396 93.9087 23.1396C93.0273 23.1396 92.3037 23.7148 92.3037 24.5962ZM92.4243 37H95.3931V27.0918H92.4243V37ZM98.5103 37H101.46V29.3462H103.27V27.0918H101.386V26.3589C101.386 25.6167 101.822 25.3477 102.676 25.3477C103.01 25.3477 103.205 25.3662 103.325 25.3755V23.353C103.14 23.3438 102.769 23.2881 102.054 23.2881C99.5957 23.2881 98.5103 24.0581 98.5103 26.1084V27.0918H97.0352V29.3462H98.5103V37ZM104.995 24.5962C104.995 25.4775 105.719 26.0527 106.6 26.0527C107.481 26.0527 108.205 25.4775 108.205 24.5962C108.205 23.7148 107.481 23.1396 106.6 23.1396C105.719 23.1396 104.995 23.7148 104.995 24.5962ZM105.116 37H108.084V27.0918H105.116V37ZM109.94 32.3521C109.94 35.3857 111.721 37.1855 114.523 37.1855C116.907 37.1855 118.707 36.0166 118.837 33.4932H116.146C116.072 34.2261 115.673 34.894 114.662 34.894C113.595 34.894 112.937 33.9478 112.937 32.3242V31.6377C112.937 30.144 113.595 29.207 114.653 29.207C115.469 29.207 116.035 29.875 116.119 30.6729H118.809C118.763 28.5298 117.167 26.9062 114.532 26.9062C111.656 26.9062 109.94 28.8359 109.94 31.6284V32.3521ZM123.216 37.1484C124.672 37.1484 125.47 36.499 125.804 35.8125H125.934V37H128.727V30.3945C128.727 27.9453 126.871 26.9434 124.496 26.9434C121.351 26.9434 120.358 28.6318 120.303 30.2461H123.077C123.114 29.5688 123.615 29.105 124.459 29.105C125.294 29.105 125.795 29.5503 125.795 30.3574V31.1831H123.503C121.193 31.1831 119.941 32.3335 119.941 34.1426C119.941 36.0259 121.277 37.1484 123.216 37.1484ZM124.236 35.0796C123.541 35.0796 122.873 34.6899 122.873 33.9106C122.873 33.2427 123.374 32.7974 124.292 32.7974H125.795V33.7715C125.795 34.5601 125.081 35.0796 124.236 35.0796ZM131.593 27.0918H130.072V29.3462H131.519V34.1797C131.519 36.2485 132.54 37.0278 135.082 37.0278C135.675 37.0278 136.158 36.9814 136.38 36.9443V34.8013C136.278 34.8105 136.028 34.8198 135.796 34.8198C134.896 34.8198 134.46 34.5229 134.46 33.6509V29.3462H136.353V27.0918H134.46V24.791H131.593V27.0918ZM138.245 24.5962C138.245 25.4775 138.969 26.0527 139.85 26.0527C140.731 26.0527 141.455 25.4775 141.455 24.5962C141.455 23.7148 140.731 23.1396 139.85 23.1396C138.969 23.1396 138.245 23.7148 138.245 24.5962ZM138.366 37H141.334V27.0918H138.366V37ZM147.903 26.9062C144.897 26.9062 143.19 28.9194 143.19 31.7026V32.3335C143.19 35.3301 144.888 37.1855 147.903 37.1855C150.909 37.1855 152.606 35.3301 152.606 32.3242V31.6841C152.606 28.9009 150.909 26.9062 147.903 26.9062ZM147.903 29.1328C149.137 29.1328 149.591 30.2925 149.591 31.6562V32.417C149.591 33.7065 149.165 34.959 147.903 34.959C146.632 34.959 146.205 33.6973 146.205 32.417V31.6562C146.205 30.311 146.65 29.1328 147.903 29.1328ZM154.351 37H157.319V31.3408C157.319 30.144 157.978 29.4204 158.98 29.4204C159.787 29.4204 160.604 29.875 160.604 31.3037V37H163.572V30.6079C163.572 28.1865 162.236 26.9434 160.242 26.9434C158.553 26.9434 157.653 27.9175 157.375 28.6318H157.236V27.0918H154.351V37ZM165.363 30.0977C165.363 31.9531 166.764 32.686 168.499 33.0479C169.695 33.2891 170.938 33.3818 170.938 34.2354C170.938 34.7642 170.484 35.2188 169.547 35.2188C168.656 35.2188 168.1 34.7734 168.035 34.1426H165.149C165.149 35.9053 166.625 37.1855 169.408 37.1855C172.209 37.1855 173.805 35.9238 173.805 33.855C173.805 32.083 172.608 31.3779 170.799 31.0532C169.677 30.8491 168.174 30.7378 168.174 29.8286C168.174 29.2627 168.656 28.8638 169.473 28.8638C170.456 28.8638 170.818 29.4204 170.883 29.9678H173.48C173.48 28.001 171.894 26.9062 169.528 26.9062C167.32 26.9062 165.363 27.834 165.363 30.0977Z" fill="#0F1419"/>
</svg>
