<svg width="29" height="24" viewBox="0 0 29 24" fill="none" xmlns="http://www.w3.org/2000/svg">
<g id="Group">
<path id="Vector" d="M28.5538 3.17119C27.51 3.63369 26.3888 3.94619 25.21 4.08744C26.4125 3.36744 27.335 2.22494 27.77 0.864941C26.645 1.53244 25.3988 2.01744 24.0725 2.27744C23.01 1.14744 21.4975 0.439941 19.8225 0.439941C16.6075 0.439941 14 3.04744 14 6.26494C14 6.71994 14.0525 7.16244 14.15 7.58994C9.30876 7.34619 5.02001 5.02744 2.14751 1.50494C1.64751 2.36744 1.36001 3.36744 1.36001 4.43244C1.36001 6.45244 2.38876 8.23619 3.95001 9.27994C2.99501 9.24869 2.09751 8.98744 1.31251 8.55119V8.62619C1.31251 11.4474 3.31876 13.8012 5.98376 14.3362C5.49376 14.4687 4.98001 14.5387 4.45001 14.5387C4.07501 14.5387 3.70876 14.5037 3.35376 14.4362C4.09501 16.7487 6.24502 18.4337 8.79377 18.4787C6.80001 20.0412 4.28876 20.9724 1.56126 20.9724C1.09126 20.9724 0.627515 20.9449 0.171265 20.8912C2.74876 22.5449 5.80876 23.5074 9.09626 23.5074C19.8088 23.5074 25.665 14.6349 25.665 6.93994C25.665 6.68994 25.6588 6.43744 25.6475 6.18744C26.785 5.36494 27.7725 4.34119 28.5513 3.17494L28.5538 3.17119Z" fill="#1DA1F2"/>
</g>
</svg>
